<?xml version="1.0" encoding="UTF-8"?>
<svg version="1.1" xmlns="http://www.w3.org/2000/svg" width="180" height="180">
<path d="M0 0 C1.26505123 0.71860898 2.53545204 1.42793331 3.8125 2.125 C9.03051257 5.19441916 12.65832464 8.66868083 16.46484375 13.29296875 C18.11182108 15.23513825 18.11182108 15.23513825 21 17.25 C25.43638501 20.8243931 27.50260216 25.99927227 30 31 C30.68160423 32.29662071 31.36530472 33.59214101 32.05078125 34.88671875 C35.98231384 42.39767958 39.42261632 49.59635248 41 58 C41.12890625 58.67289062 41.2578125 59.34578125 41.390625 60.0390625 C44.87468256 83.78566531 39.32839949 105.63736264 27 126 C26.31903578 127.32608822 25.64669414 128.65686601 25 130 C24.34 130 23.68 130 23 130 C22.78730469 130.53753906 22.57460937 131.07507813 22.35546875 131.62890625 C20.49679278 134.88025009 17.96274001 137.33375543 15.3125 139.9375 C14.77085205 140.47310547 14.2292041 141.00871094 13.67114258 141.56054688 C6.25501215 148.79363145 -2.05730398 153.70630804 -11.3984375 158.0703125 C-13.18428163 158.91104052 -13.18428163 158.91104052 -14 161 C-15.9903399 161.38685681 -17.9930186 161.71166552 -20 162 C-21.81978299 162.49957742 -23.63617037 163.0116648 -25.44921875 163.53515625 C-32.58592306 165.34162421 -39.47957511 165.49698881 -46.8125 165.4375 C-47.47397034 165.43379395 -48.13544067 165.43008789 -48.81695557 165.42626953 C-68.27996267 165.27097489 -84.51942235 159.50760707 -100.30078125 148.12890625 C-102.11643518 146.81586605 -102.11643518 146.81586605 -105 146 C-106.6484375 144.109375 -106.6484375 144.109375 -108.375 141.75 C-110.34999956 139.11666725 -112.20006297 136.80481662 -114.5625 134.5 C-120.27372987 128.64232834 -124.24149248 121.21585257 -128 114 C-128.4228125 113.23816406 -128.845625 112.47632812 -129.28125 111.69140625 C-138.39132932 93.88786709 -139.68144197 70.98996763 -134 52 C-130.30381399 41.58702265 -125.77315228 31.95557607 -119.5625 22.8125 C-118.98628906 21.95269531 -118.41007812 21.09289063 -117.81640625 20.20703125 C-115.93655053 17.92290548 -114.58236655 17.28853197 -112 16 C-110.9187369 14.08757248 -110.9187369 14.08757248 -110 12 C-97.13533177 -3.1193008 -75.04429923 -12.19556612 -55.58203125 -13.83984375 C-35.50456824 -15.0851932 -16.83790532 -11.16185061 0 0 Z " fill="#C3A871" transform="translate(138,14)"/>
<path d="M0 0 C1.26505123 0.71860898 2.53545204 1.42793331 3.8125 2.125 C9.03051257 5.19441916 12.65832464 8.66868083 16.46484375 13.29296875 C18.11182108 15.23513825 18.11182108 15.23513825 21 17.25 C25.43638501 20.8243931 27.50260216 25.99927227 30 31 C30.68160423 32.29662071 31.36530472 33.59214101 32.05078125 34.88671875 C35.98231384 42.39767958 39.42261632 49.59635248 41 58 C41.12890625 58.67289062 41.2578125 59.34578125 41.390625 60.0390625 C44.87468256 83.78566531 39.32839949 105.63736264 27 126 C26.31903578 127.32608822 25.64669414 128.65686601 25 130 C24.34 130 23.68 130 23 130 C22.78730469 130.53753906 22.57460937 131.07507813 22.35546875 131.62890625 C20.49679278 134.88025009 17.96274001 137.33375543 15.3125 139.9375 C14.77085205 140.47310547 14.2292041 141.00871094 13.67114258 141.56054688 C6.25501215 148.79363145 -2.05730398 153.70630804 -11.3984375 158.0703125 C-13.18428163 158.91104052 -13.18428163 158.91104052 -14 161 C-15.9903399 161.38685681 -17.9930186 161.71166552 -20 162 C-21.81978299 162.49957742 -23.63617037 163.0116648 -25.44921875 163.53515625 C-32.58592306 165.34162421 -39.47957511 165.49698881 -46.8125 165.4375 C-47.47397034 165.43379395 -48.13544067 165.43008789 -48.81695557 165.42626953 C-68.27996267 165.27097489 -84.51942235 159.50760707 -100.30078125 148.12890625 C-102.11643518 146.81586605 -102.11643518 146.81586605 -105 146 C-106.6484375 144.109375 -106.6484375 144.109375 -108.375 141.75 C-110.34999956 139.11666725 -112.20006297 136.80481662 -114.5625 134.5 C-120.27372987 128.64232834 -124.24149248 121.21585257 -128 114 C-128.4228125 113.23816406 -128.845625 112.47632812 -129.28125 111.69140625 C-138.39132932 93.88786709 -139.68144197 70.98996763 -134 52 C-130.30381399 41.58702265 -125.77315228 31.95557607 -119.5625 22.8125 C-118.98628906 21.95269531 -118.41007812 21.09289063 -117.81640625 20.20703125 C-115.93655053 17.92290548 -114.58236655 17.28853197 -112 16 C-110.9187369 14.08757248 -110.9187369 14.08757248 -110 12 C-97.13533177 -3.1193008 -75.04429923 -12.19556612 -55.58203125 -13.83984375 C-35.50456824 -15.0851932 -16.83790532 -11.16185061 0 0 Z M-76 9 C-77.40572266 9.57621094 -77.40572266 9.57621094 -78.83984375 10.1640625 C-85.3349181 13.1063612 -90.66620984 17.31538825 -96 22 C-97.051875 22.90878906 -97.051875 22.90878906 -98.125 23.8359375 C-109.21854947 34.10613759 -118.28955236 50.7709749 -119.11328125 66.109375 C-119.12306495 67.73999124 -119.06932644 69.37082877 -119 71 C-118.34 71.33 -117.68 71.66 -117 72 C-117.66 72.99 -118.32 73.98 -119 75 C-119.24150773 77.51584891 -119.24150773 77.51584891 -119.125 80.1875 C-119.10695313 81.08855469 -119.08890625 81.98960938 -119.0703125 82.91796875 C-119.04710938 83.60503906 -119.02390625 84.29210937 -119 85 C-118.22398438 84.566875 -117.44796875 84.13375 -116.6484375 83.6875 C-107.87092332 79.16257622 -101.89402041 78.19898485 -92 79 C-92 79.66 -92 80.32 -92 81 C-92.60585937 80.95359375 -93.21171875 80.9071875 -93.8359375 80.859375 C-103.22121604 80.45508608 -110.51735762 83.48647404 -118 89 C-116.76053463 97.72518387 -114.93838395 106.17085846 -109 113 C-108.01 112.505 -108.01 112.505 -107 112 C-106.690625 113.27875 -106.38125 114.5575 -106.0625 115.875 C-104.0253069 122.09536147 -99.78711214 126.64890567 -95 131 C-94.34 131 -93.68 131 -93 131 C-93 130.34 -93 129.68 -93 129 C-92.01 129 -91.02 129 -90 129 C-90.103125 129.928125 -90.20625 130.85625 -90.3125 131.8125 C-90.209375 132.864375 -90.10625 133.91625 -90 135 C-87.61107499 136.88599343 -86.08148442 138 -83 138 C-82.67128906 137.29875 -82.34257813 136.5975 -82.00390625 135.875 C-76.87031431 125.63564047 -70.28958751 118.92109532 -59.4375 114.8515625 C-48.24836645 112.07970896 -36.98300274 112.99212957 -27 119 C-19.87521699 124.15284965 -15.19283533 130.36304994 -11 138 C-6.43917803 136.64407995 -5.35527201 134.99372211 -3 131 C-1.67203709 130.64587656 -0.33783393 130.31478446 1 130 C3.54182045 127.79245093 3.54182045 127.79245093 6 125 C6.70769531 124.28070313 6.70769531 124.28070313 7.4296875 123.546875 C9.71959023 121.08878733 10.93853833 119.41267124 11.4375 116.0625 C10.93480378 112.54362648 10.08307311 109.38460347 9 106 C11.33524782 108.25740623 13.18705073 110.2805761 15 113 C18.22193962 108.39176768 18.22193962 108.39176768 18.75 103.0625 C18.37875 102.0415625 18.37875 102.0415625 18 101 C20.475 100.505 20.475 100.505 23 100 C23.24915939 98.23186888 23.47366632 96.46025018 23.6875 94.6875 C23.81511719 93.70136719 23.94273437 92.71523437 24.07421875 91.69921875 C24.281462 88.97814837 24.281462 88.97814837 22.58203125 87.33203125 C22.05996094 86.89246094 21.53789062 86.45289062 21 86 C20.67 85.01 20.34 84.02 20 83 C21.65 83.66 23.3 84.32 25 85 C25 82.03 25 79.06 25 76 C12.99779561 69.43511994 1.89755701 66.82897922 -11.5625 70.625 C-23.95492617 74.82432925 -33.55452015 81.93132797 -39.9921875 93.43359375 C-41 95 -41 95 -43 96 C-42.65629137 92.3337746 -41.4634363 90.04417461 -39.4375 87.0625 C-37.13482179 83.57539823 -36.46818946 81.25448432 -37 77 C-35.02 77.99 -35.02 77.99 -33 79 C-31.02 77.68 -29.04 76.36 -27 75 C-27.77400682 69.16439595 -30.80190845 65.93294892 -35 62 C-37.71826792 60.46865622 -37.71826792 60.46865622 -40 60 C-37.75 59.3125 -37.75 59.3125 -35 59 C-32.8125 60.4375 -32.8125 60.4375 -31 62 C-30.34 62 -29.68 62 -29 62 C-28.5978125 62.8353125 -28.5978125 62.8353125 -28.1875 63.6875 C-26.89877353 66.19712523 -25.47073522 68.59334236 -24 71 C-20.63672037 70.43945339 -18.00887781 69.58158962 -15 68 C-19.9854013 57.29061943 -25.74978616 51.30908986 -36.86328125 46.8515625 C-45.15862862 44.59952548 -54.82016891 44.85179488 -62.65234375 48.5390625 C-69.79456646 52.98364036 -75.36460446 58.41308756 -79 66 C-79.33 66.33 -79.66 66.66 -80 67 C-80.99 67 -81.98 67 -83 67 C-76.26529206 55.43875137 -69.82340626 47.39911328 -56.46875 43.47265625 C-46.04040681 41.47609054 -35.87215881 42.97868616 -26.68359375 48.35546875 C-19.7047758 53.29493572 -14.97294413 59.51252837 -11 67 C-7.535 66.505 -7.535 66.505 -4 66 C-4.50840885 61.17369625 -5.86958544 58.1398908 -8.5625 54.125 C-9.20316406 53.15820312 -9.84382813 52.19140625 -10.50390625 51.1953125 C-11.24447266 50.10863281 -11.24447266 50.10863281 -12 49 C-9.71484375 49.53125 -9.71484375 49.53125 -7 51 C-6.08926412 52.77664806 -5.18912746 54.56338933 -4.42822266 56.40917969 C-2.99319002 59.87494943 -1.47701969 63.15293494 1 66 C5.65125852 67.88489618 10.0337021 67.8337177 15 68 C18.40436554 68.80853681 21.6942151 69.85744762 25 71 C24.5896583 53.05687664 16.69916989 37.26329808 4.4765625 24.34765625 C-3.10385715 17.16180103 -11.20592483 11.63932848 -21 8 C-21.96421875 7.608125 -22.9284375 7.21625 -23.921875 6.8125 C-40.5303126 0.97929265 -59.93321622 2.13320457 -76 9 Z " fill="#D6B773" transform="translate(138,14)"/>
<path d="M0 0 C18.4660397 12.74076102 30.53414511 29.58371392 34.68359375 51.8515625 C34.74038902 53.85075591 34.75975797 55.85301327 34.68359375 57.8515625 C34.12414062 57.65820312 33.5646875 57.46484375 32.98828125 57.265625 C28.96913521 55.96037179 25.44052836 54.87690629 21.18359375 54.734375 C17.27116738 54.59103179 14.33201648 54.30482179 10.68359375 52.8515625 C7.56115764 48.74443657 5.64110922 44.37645728 3.56054688 39.68261719 C-1.34856695 29.43251873 -12.18781131 23.51695935 -22.4296875 19.6875 C-36.13850732 15.80182127 -50.00770969 17.15901729 -62.50390625 23.9765625 C-70.43395553 28.9599833 -76.20449637 34.05784512 -79.97167969 42.68457031 C-83.66710754 51.00226637 -83.66710754 51.00226637 -87.09716797 52.76855469 C-90.52431979 53.80952376 -93.94564503 54.20046015 -97.50390625 54.51171875 C-101.96349232 54.90924333 -105.25337717 56.07398728 -109.31640625 57.8515625 C-108.95136968 37.57544002 -99.38087272 21.91602897 -85.3515625 7.88671875 C-77.36799595 0.42559419 -67.6312376 -3.86915586 -57.31640625 -7.1484375 C-56.29804687 -7.50550781 -55.2796875 -7.86257812 -54.23046875 -8.23046875 C-36.77203623 -13.10577859 -15.38163139 -9.13064877 0 0 Z " fill="#201F1C" transform="translate(128.31640625,27.1484375)"/>
<path d="M0 0 C2.51449917 2.19431676 4.81982695 4.474377 7 7 C5.68 7.33 4.36 7.66 3 8 C3.5775 8.89203125 4.155 9.7840625 4.75 10.703125 C5.50047142 11.88511748 6.2504455 13.06742584 7 14.25 C7.3815625 14.83652344 7.763125 15.42304687 8.15625 16.02734375 C10.27747611 19.3985781 11 20.90580718 11 25 C7.535 25.495 7.535 25.495 4 26 C3.59910156 25.29875 3.19820313 24.5975 2.78515625 23.875 C-4.0304975 12.50012209 -11.24708134 6.28316574 -23.90625 2.41796875 C-32.06105064 0.79005146 -40.48927621 1.47345944 -48 5 C-48.82242188 5.37898438 -49.64484375 5.75796875 -50.4921875 6.1484375 C-58.82611039 10.53071306 -64.03614157 17.55698153 -68 26 C-67.01 26 -66.02 26 -65 26 C-63.87179401 24.94787688 -63.87179401 24.94787688 -62.87109375 23.1796875 C-57.84946189 15.10676435 -52.02809065 8.90830345 -42.90234375 5.66015625 C-31.882923 3.15372004 -22.11180827 4.63330339 -12.6015625 10.47265625 C-6.84084124 14.52047202 -2.74497257 19.47173914 0 26 C-1 28 -1 28 -3.375 29.125 C-6 30 -6 30 -9 30 C-10.38671875 28.5390625 -10.38671875 28.5390625 -11.6875 26.625 C-12.12449219 25.99851563 -12.56148438 25.37203125 -13.01171875 24.7265625 C-14 23 -14 23 -14 21 C-16.96341714 19.35365714 -19.63176256 18.44318914 -23 18 C-23.66 18.33 -24.32 18.66 -25 19 C-24.13375 19.350625 -23.2675 19.70125 -22.375 20.0625 C-17.46199888 22.88292657 -13.7678389 26.42225514 -12.125 31.9375 C-12.08375 32.618125 -12.0425 33.29875 -12 34 C-14.31 35.32 -16.62 36.64 -19 38 C-20.485 37.01 -20.485 37.01 -22 36 C-22 37.98 -22 39.96 -22 42 C-22.33 42 -22.66 42 -23 42 C-23.061875 40.9275 -23.12375 39.855 -23.1875 38.75 C-23.69388644 34.95530535 -23.69388644 34.95530535 -26.125 32.5625 C-29.80066382 30.56485662 -31.87151069 30.33649279 -36 31 C-39.06307631 32.97966263 -39.06307631 32.97966263 -41 36 C-41.55241795 40.87070946 -40.46329919 43.56221977 -37.9375 47.6875 C-36.21484375 50.51171875 -36.21484375 50.51171875 -35 53 C-35.495 54.485 -35.495 54.485 -36 56 C-39.96585297 54.67804901 -41.05165332 52.17700044 -43.1875 48.8125 C-48.6004067 40.66604776 -54.95454314 35.78327093 -64 32 C-65.27423828 31.46246094 -65.27423828 31.46246094 -66.57421875 30.9140625 C-71.30375839 29.65213288 -75.81128584 29.61841608 -80.6875 29.625 C-81.66541504 29.62371094 -82.64333008 29.62242188 -83.65087891 29.62109375 C-90.686327 29.72422875 -96.7135107 30.63116363 -103 34 C-103 32.68 -103 31.36 -103 30 C-95.68863795 25.12575864 -88.59696174 24.41551982 -80 24 C-79.79375 23.21625 -79.5875 22.4325 -79.375 21.625 C-74.14739376 7.84312901 -64.28564644 -1.82568824 -51 -8 C-33.28680558 -14.53203101 -15.17941609 -10.80720613 0 0 Z " fill="#C4A971" transform="translate(123,55)"/>
<path d="M0 0 C6.62791492 4.31782049 11.86676525 9.13510312 15.140625 16.39453125 C15.140625 17.38453125 15.140625 18.37453125 15.140625 19.39453125 C14.480625 19.39453125 13.820625 19.39453125 13.140625 19.39453125 C13.140625 20.05453125 13.140625 20.71453125 13.140625 21.39453125 C15.120625 21.39453125 17.100625 21.39453125 19.140625 21.39453125 C16.60384712 23.0857165 14.33726545 24.22139692 11.578125 25.45703125 C1.6852628 30.39624128 -4.8520348 37.6444664 -9.859375 47.39453125 C-10.189375 46.40453125 -10.519375 45.41453125 -10.859375 44.39453125 C-11.849375 44.39453125 -12.839375 44.39453125 -13.859375 44.39453125 C-13.859375 45.05453125 -13.859375 45.71453125 -13.859375 46.39453125 C-19.57841981 43.95816687 -24.48669211 38.78159838 -26.8203125 33.0234375 C-27.359375 30.83203125 -27.359375 30.83203125 -27.859375 27.39453125 C-28.849375 27.72453125 -29.839375 28.05453125 -30.859375 28.39453125 C-35.16638386 21.93401796 -39.16790214 13.05749721 -38.73828125 5.171875 C-37.00046821 1.65763086 -33.87169585 0.34401415 -30.49609375 -1.39453125 C-21.2504988 -4.47308596 -8.82747294 -4.36743853 0 0 Z " fill="#C6AB72" transform="translate(58.859375,98.60546875)"/>
<path d="M0 0 C7.38116329 5.69646428 14.15797731 11.88242275 17.625 20.75 C17.625 22.07 17.625 23.39 17.625 24.75 C14.16 25.245 14.16 25.245 10.625 25.75 C10.22410156 25.04875 9.82320313 24.3475 9.41015625 23.625 C2.5945025 12.25012209 -4.62208134 6.03316574 -17.28125 2.16796875 C-25.43605064 0.54005146 -33.86427621 1.22345944 -41.375 4.75 C-42.19742188 5.12898438 -43.01984375 5.50796875 -43.8671875 5.8984375 C-52.20111039 10.28071306 -57.41114157 17.30698153 -61.375 25.75 C-65.335 25.255 -65.335 25.255 -69.375 24.75 C-66.90280446 14.79058368 -60.94932861 6.46119603 -52.375 0.75 C-35.53424253 -8.65356746 -17.04225792 -11.38756378 0 0 Z " fill="#1F1913" transform="translate(116.375,55.25)"/>
<path d="M0 0 C5.19261066 5.07721931 9.32016234 10.90828878 11.8125 17.75 C9.5 19.8125 9.5 19.8125 6.8125 21.75 C3.8125 20.75 3.8125 20.75 2.70703125 18.96484375 C2.34996094 18.21332031 1.99289063 17.46179688 1.625 16.6875 C-4.00794515 6.17378338 -12.11044256 1.44235248 -23.1875 -2.25 C-36.17076928 -3.23893237 -46.56612412 -2.0988184 -57.0625 6.375 C-61.70244231 10.78674842 -64.49140849 15.99833811 -67.1875 21.75 C-71.9375 19.875 -71.9375 19.875 -74.1875 18.75 C-72.90152216 10.2266585 -66.69964083 3.11672476 -60.1875 -2.25 C-56.97405193 -4.51863028 -53.68472963 -6.4523586 -50.1875 -8.25 C-49.52492188 -8.59289062 -48.86234375 -8.93578125 -48.1796875 -9.2890625 C-31.46066033 -16.30449743 -13.77898492 -9.7263423 0 0 Z " fill="#1F1A13" transform="translate(122.1875,130.25)"/>
<path d="M0 0 C6.79995084 4.78611925 12.4565392 11.00389738 15.71875 18.6796875 C18.02875 18.6796875 20.33875 18.6796875 22.71875 18.6796875 C21.24300476 14.25245179 19.8177531 10.56488344 17.03125 6.8046875 C14.71875 3.6796875 14.71875 3.6796875 14.71875 1.6796875 C17.01953125 1.8828125 17.01953125 1.8828125 19.71875 2.6796875 C21.44921875 4.7890625 21.44921875 4.7890625 22.90625 7.4296875 C23.63908203 8.72132812 23.63908203 8.72132812 24.38671875 10.0390625 C25.65072453 12.54483348 26.72346352 15.05703687 27.71875 17.6796875 C28.61335938 17.77765625 29.50796875 17.875625 30.4296875 17.9765625 C38.09085188 18.92399861 44.73390737 20.36430136 51.71875 23.6796875 C52.04875 23.0196875 52.37875 22.3596875 52.71875 21.6796875 C52.71875 22.6696875 52.71875 23.6596875 52.71875 24.6796875 C51.72875 24.6796875 50.73875 24.6796875 49.71875 24.6796875 C50.21375 26.1646875 50.21375 26.1646875 50.71875 27.6796875 C50.17347656 27.48632812 49.62820312 27.29296875 49.06640625 27.09375 C33.80511308 21.82403851 20.91623836 20.77657947 5.91796875 28.03515625 C-2.45861535 32.77637912 -7.97649469 38.66337953 -12.921875 46.859375 C-14.28125 48.6796875 -14.28125 48.6796875 -17.28125 49.6796875 C-16.90357691 44.64404628 -15.14343618 41.72100397 -12.42578125 37.6484375 C-10.9212116 35.06037231 -10.50348533 32.64282517 -10.28125 29.6796875 C-9.70375 29.9065625 -9.12625 30.1334375 -8.53125 30.3671875 C-6.17131205 30.95064343 -6.17131205 30.95064343 -4.15625 29.2421875 C-3.5375 28.7265625 -2.91875 28.2109375 -2.28125 27.6796875 C-1.62125 27.6796875 -0.96125 27.6796875 -0.28125 27.6796875 C-3.31118268 20.49696473 -6.86432268 15.81761829 -14.28125 12.6796875 C-11.28125 10.6796875 -11.28125 10.6796875 -8.90625 10.7421875 C-3.75342819 12.582481 -0.43223548 17.36167036 2.71875 21.6796875 C2.71875 22.3396875 2.71875 22.9996875 2.71875 23.6796875 C6.67875 22.1946875 6.67875 22.1946875 10.71875 20.6796875 C5.87197577 10.4668418 0.52840066 4.81844356 -10.1484375 0.52734375 C-18.51147251 -1.73547246 -28.11791998 -1.43255816 -36 2.28515625 C-42.75742803 6.41598126 -48.01410312 11.43514443 -51.28125 18.6796875 C-51.28125 19.6696875 -51.28125 20.6596875 -51.28125 21.6796875 C-51.94125 21.6796875 -52.60125 21.6796875 -53.28125 21.6796875 C-53.28125 21.0196875 -53.28125 20.3596875 -53.28125 19.6796875 C-54.27125 19.6796875 -55.26125 19.6796875 -56.28125 19.6796875 C-53.84161716 11.28735055 -48.76020287 4.88180934 -41.34375 0.2421875 C-27.85344899 -6.99501046 -13.63189952 -7.88969527 0 0 Z " fill="#C8AC73" transform="translate(111.28125,61.3203125)"/>
<path d="M0 0 C4.5418789 3.62610291 8.1028969 8.24368912 10.8125 13.375 C10.8125 14.695 10.8125 16.015 10.8125 17.375 C5.0625 20.375 5.0625 20.375 2.8125 20.375 C1.90264236 18.86553126 1.06028901 17.31517364 0.25 15.75 C-3.13622774 9.88442123 -7.59453253 5.89349129 -14.1015625 3.7421875 C-21.00536007 2.52691227 -28.20160503 2.3533946 -34.37109375 5.97265625 C-39.21504761 9.71239697 -43.50322302 14.38645964 -45.1875 20.375 C-48.1575 19.385 -51.1275 18.395 -54.1875 17.375 C-51.79228246 8.99173862 -46.5635558 1.7111692 -39.09765625 -2.921875 C-26.19139256 -9.55526192 -11.87290764 -7.97569368 0 0 Z " fill="#1F1A14" transform="translate(112.1875,137.625)"/>
<path d="M0 0 C7.86031999 4.5514224 13.67959906 9.76932091 17.2734375 18.31640625 C16.2734375 20.31640625 16.2734375 20.31640625 13.8984375 21.44140625 C11.2734375 22.31640625 11.2734375 22.31640625 8.2734375 22.31640625 C6.88671875 20.85546875 6.88671875 20.85546875 5.5859375 18.94140625 C5.14894531 18.31492187 4.71195313 17.6884375 4.26171875 17.04296875 C3.2734375 15.31640625 3.2734375 15.31640625 3.2734375 13.31640625 C2.69722656 13.03023437 2.12101562 12.7440625 1.52734375 12.44921875 C0.10778764 11.73575034 -1.30276089 11.00377584 -2.69921875 10.24609375 C-8.7096339 7.21280012 -14.04085181 6.23503251 -20.7265625 7.31640625 C-27.35567344 9.53239639 -31.73738933 12.63485659 -35.7265625 18.31640625 C-36.3246875 19.10015625 -36.9228125 19.88390625 -37.5390625 20.69140625 C-37.9309375 21.22765625 -38.3228125 21.76390625 -38.7265625 22.31640625 C-42.10118965 21.76916942 -43.8089125 21.26150625 -46.7265625 19.31640625 C-44.58377524 11.64924558 -39.73982178 5.86083576 -33.015625 1.59765625 C-22.69147987 -3.60983045 -10.7376249 -5.11910025 0 0 Z " fill="#201B14" transform="translate(105.7265625,62.68359375)"/>
<path d="M0 0 C0 2.97 0 5.94 0 9 C-3.98435344 7.45766963 -7.84868147 5.7079215 -11.71875 3.90234375 C-19.87074016 0.67784079 -29.31953769 1.10260016 -37.5234375 3.90234375 C-47.82336395 8.46745311 -54.65550906 16.25416358 -60 26 C-62.31 25.67 -64.62 25.34 -67 25 C-65.84524463 15.14893872 -58.96519118 8.24342433 -51.6796875 1.9765625 C-36.47619065 -9.23767862 -15.92251993 -10.49438813 0 0 Z " fill="#201A12" transform="translate(163,90)"/>
<path d="M0 0 C1.11375 0.66 2.2275 1.32 3.375 2 C4.24125 2.66 5.1075 3.32 6 4 C6.94875 4.66 7.8975 5.32 8.875 6 C14.59571958 10.8557832 20.04693254 18.48596088 21 26 C17.04 26.495 17.04 26.495 13 27 C12.64808594 26.35933594 12.29617187 25.71867187 11.93359375 25.05859375 C5.49018464 13.77001016 -1.31182895 8.37873318 -13.375 3.6875 C-25.54776721 1.37887174 -35.30254427 4.2175915 -46 10 C-46 6.7 -46 3.4 -46 0 C-32.4529749 -8.00246209 -13.51916156 -8.08362237 0 0 Z " fill="#1F1912" transform="translate(65,89)"/>
<path d="M0 0 C0.7425 0.5775 1.485 1.155 2.25 1.75 C1.59 4.72 0.93 7.69 0.25 10.75 C-3.13849114 10.75 -4.00465529 10.14792933 -6.75 8.3125 C-13.58654809 3.76774928 -20.79906819 4.02794252 -28.75 4.75 C-34.74120578 6.79287292 -39.22579487 11.60392885 -42.75 16.75 C-43.08 17.74 -43.41 18.73 -43.75 19.75 C-46.72 18.76 -49.69 17.77 -52.75 16.75 C-50.91655955 8.60137578 -44.54256066 2.69387237 -37.91015625 -1.99609375 C-25.92998708 -8.9502245 -11.41420409 -7.53768195 0 0 Z " fill="#211C15" transform="translate(159.75,101.25)"/>
<path d="M0 0 C7.68442693 3.80191053 13.85285595 9.69002841 17.375 17.5 C17.375 18.49 17.375 19.48 17.375 20.5 C11.625 23.5 11.625 23.5 9.375 23.5 C8.44483753 22.1403039 7.58080596 20.73508116 6.75 19.3125 C3.10181509 13.62061445 -1.25810817 10.62229728 -7.625 8.5 C-18.20427292 7.75659163 -24.39313137 8.67930885 -32.625 15.5 C-33.285 15.5 -33.945 15.5 -34.625 15.5 C-35.285 12.2 -35.945 8.9 -36.625 5.5 C-25.24987993 -1.70424271 -13.38034171 -4.78474245 0 0 Z " fill="#201B14" transform="translate(56.625,97.5)"/>
<path d="M0 0 C4.959007 2.87744851 8.91070504 6.82968836 10.5625 12.375 C10.60375 13.055625 10.645 13.73625 10.6875 14.4375 C7.2225 16.4175 7.2225 16.4175 3.6875 18.4375 C3.45675781 17.89480469 3.22601563 17.35210937 2.98828125 16.79296875 C1.47769213 13.47922581 0.20980031 10.91503171 -2.5 8.4375 C-6.56036471 6.99381477 -10.06704747 6.53760921 -14.3125 7.4375 C-18.24453309 9.66738644 -20.73474565 12.2819913 -22.75 16.3125 C-22.935625 17.01375 -23.12125 17.715 -23.3125 18.4375 C-25.2925 17.1175 -27.2725 15.7975 -29.3125 14.4375 C-29.20590104 10.06694251 -28.08373651 7.81300916 -25.125 4.75 C-17.89567116 -1.85132653 -9.2806149 -4.13263466 0 0 Z " fill="#201A12" transform="translate(100.3125,74.5625)"/>
<path d="M0 0 C4.95848947 2.89635774 9.54291757 6.90760281 11.44140625 12.45703125 C11.50328125 12.99328125 11.56515625 13.52953125 11.62890625 14.08203125 C8.5408093 15.84665808 7.39578489 16.08203125 3.62890625 16.08203125 C2.60278676 14.43131729 1.60582482 12.76233119 0.62890625 11.08203125 C-3.10710413 7.89543416 -6.48532223 7.61588051 -11.22265625 7.796875 C-14.2643589 8.2005919 -16.04116407 9.09473829 -18.37109375 11.08203125 C-20.17905478 13.64813791 -20.17905478 13.64813791 -21.37109375 16.08203125 C-24.01109375 15.75203125 -26.65109375 15.42203125 -29.37109375 15.08203125 C-27.66959863 8.5854135 -24.55495946 4.09989583 -18.80859375 0.70703125 C-12.92150591 -1.93047313 -6.04798552 -2.3414771 0 0 Z " fill="#211B13" transform="translate(99.37109375,144.91796875)"/>
<path d="M0 0 C3.3070799 1.86399049 5.47617085 3.21405901 6.58203125 6.984375 C7.03381827 12.91013968 4.76090284 16.83170884 1.5078125 21.640625 C-0.01594634 24.02495231 -1.03134987 26.34796761 -2 29 C-2.66 29 -3.32 29 -4 29 C-5.52070879 26.30280905 -7.01262222 23.59069277 -8.5 20.875 C-8.92925781 20.11445312 -9.35851562 19.35390625 -9.80078125 18.5703125 C-12.14204765 14.25940929 -13.76647133 11.04217908 -13 6 C-9.27164865 0.40747298 -6.71012047 -0.67101205 0 0 Z " fill="#211D18" transform="translate(94,85)"/>
<path d="M0 0 C2.93983416 2.11392757 5.49473604 4.39035004 8 7 C8.515625 7.51820313 9.03125 8.03640625 9.5625 8.5703125 C12.60168931 11.86852363 13.90236237 14.50866904 14 19 C13.0625 21.375 13.0625 21.375 12 23 C11.62875 22.01 11.2575 21.02 10.875 20 C7.04387909 11.15619753 0.93662247 4.8090956 -8 1.1875 C-16.9545065 -1.47589168 -27.29527857 -1.33515928 -35.7890625 2.671875 C-42.33794961 6.60583545 -46.85586141 11.66190569 -51 18 C-51.66 18.99 -52.32 19.98 -53 21 C-54.32 20.67 -55.64 20.34 -57 20 C-52.19256182 9.54479908 -45.89699162 2.05963787 -35.4375 -3.0625 C-23.72981851 -7.38695893 -10.70954634 -6.43866985 0 0 Z " fill="#C1A671" transform="translate(111,132)"/>
<path d="M0 0 C1.21171875 -0.02578125 2.4234375 -0.0515625 3.671875 -0.078125 C9.54316037 0.46028982 13.28632041 2.74644003 17.0625 7.1875 C17.93841797 8.19103516 17.93841797 8.19103516 18.83203125 9.21484375 C20.26553419 11.27229563 20.82781108 12.79911109 21.25 15.25 C17.785 17.23 17.785 17.23 14.25 19.25 C13.95867188 18.70730469 13.66734375 18.16460937 13.3671875 17.60546875 C10.65492559 12.8718041 8.66646425 9.98326856 3.25 8.25 C-0.3023775 7.66870186 -2.57040913 7.51215875 -5.6796875 9.45703125 C-8.910418 12.1046216 -11.03643581 14.40492913 -12.75 18.25 C-15.89958831 14.82653445 -16.31179109 11.80737263 -16.75 7.25 C-15.45982586 6.26886757 -14.16780894 5.29015801 -12.875 4.3125 C-11.79605469 3.49458984 -11.79605469 3.49458984 -10.6953125 2.66015625 C-7.04871628 0.01674012 -4.49172639 0.0568573 0 0 Z " fill="#201A11" transform="translate(41.75,108.75)"/>
<path d="M0 0 C1.97566695 1.21325744 3.69135853 2.43652258 5.41796875 3.98046875 C5.98386719 4.48191406 6.54976562 4.98335938 7.1328125 5.5 C8.41796875 6.98046875 8.41796875 6.98046875 8.29296875 9.35546875 C7.34529178 12.19849967 6.06014662 14.48150242 4.41796875 16.98046875 C3.75796875 15.99046875 3.09796875 15.00046875 2.41796875 13.98046875 C-0.23674543 10.22725216 -2.07127713 8.13438259 -6.58203125 6.98046875 C-10.75025078 6.52575389 -13.03470546 6.71733135 -16.83203125 8.54296875 C-20.21543326 11.54189326 -21.11957398 13.7555922 -22.58203125 17.98046875 C-25.07564696 16.77665427 -27.26346208 15.52618153 -29.58203125 13.98046875 C-29.30651723 9.43448735 -27.2558113 6.97726331 -24.4453125 3.62890625 C-17.87901558 -2.18027048 -8.089583 -3.19422264 0 0 Z " fill="#1F1911" transform="translate(148.58203125,110.01953125)"/>
<path d="M0 0 C5.57894737 3.15789474 5.57894737 3.15789474 7 6 C8.31332038 13.55159221 3.96353035 18.84237249 0 25 C-5.28250011 22.73947068 -8.81846018 18.69727341 -12 14 C-12.95917371 10.79133557 -12.6848523 9.42426148 -12 6 C-8.64695006 0.74688842 -6.19417861 -0.5955941 0 0 Z " fill="#211D18" transform="translate(45,120)"/>
<path d="M0 0 C2.91611944 1.84891489 5.42997066 3.85994132 7 7 C7.38851386 10.66020954 7.29360046 12.50686525 5.390625 15.703125 C4.68421875 16.54359375 3.9778125 17.3840625 3.25 18.25 C2.55390625 19.10078125 1.8578125 19.9515625 1.140625 20.828125 C-0.85893384 22.85687448 -2.38623866 23.94036702 -5 25 C-13.22189942 13.77878523 -13.22189942 13.77878523 -12.62109375 6.94921875 C-10.82021657 1.29740923 -5.68272072 -1.18390015 0 0 Z " fill="#231E18" transform="translate(142,120)"/>
<path d="M0 0 C6.03400388 3.46661994 9.90098114 7.73923518 12.80859375 14.0390625 C11.69972386 16.25680227 10.76675735 17.51604637 8.80859375 19.0390625 C6.62109375 18.7265625 6.62109375 18.7265625 4.80859375 18.0390625 C5.79859375 17.7090625 6.78859375 17.3790625 7.80859375 17.0390625 C6.54629385 11.14832965 3.57006575 8.37410196 -1.19140625 5.0390625 C-6.14548411 1.99199369 -11.56772301 2.45506463 -17.19140625 3.0390625 C-22.63430645 4.66315369 -26.00111259 7.31270153 -29.19140625 12.0390625 C-29.76890625 12.8021875 -30.34640625 13.5653125 -30.94140625 14.3515625 C-31.35390625 14.9084375 -31.76640625 15.4653125 -32.19140625 16.0390625 C-32.52140625 15.3790625 -32.85140625 14.7190625 -33.19140625 14.0390625 C-33.85140625 14.3690625 -34.51140625 14.6990625 -35.19140625 15.0390625 C-33.72383296 8.35345085 -29.72264016 4.62863403 -24.375 0.70703125 C-17.11604674 -3.58166139 -7.6225054 -3.39130178 0 0 Z " fill="#C2A872" transform="translate(102.19140625,141.9609375)"/>
<path d="M0 0 C1.91697937 0.14166357 3.83357723 0.28849584 5.75 0.4375 C7.35101563 0.55931641 7.35101563 0.55931641 8.984375 0.68359375 C12 1 12 1 13.78125 1.48632812 C16.68957242 2.15964573 19.53748608 2.33210132 22.515625 2.53515625 C23.76601562 2.62216797 25.01640625 2.70917969 26.3046875 2.79882812 C27.60664062 2.88583984 28.90859375 2.97285156 30.25 3.0625 C31.58075175 3.15396895 32.91148124 3.24576229 34.2421875 3.33789062 C37.49458677 3.56178768 40.74717678 3.7823637 44 4 C44 3.34 44 2.68 44 2 C45.74784829 1.63536268 47.49840502 1.2836922 49.25 0.9375 C50.71179688 0.64166016 50.71179688 0.64166016 52.203125 0.33984375 C54.91719577 0.01006141 56.42565453 0.26481707 59 1 C49.16552156 4.32326453 40.51206277 5.65048875 30.0625 5.5 C28.75522949 5.49226562 27.44795898 5.48453125 26.10107422 5.4765625 C16.87791909 5.31102164 8.61476158 4.38545016 0 1 C0 0.67 0 0.34 0 0 Z " fill="#AB946A" transform="translate(61,174)"/>
<path d="M0 0 C9.94522874 -0.63480183 18.89338362 0.4646502 27.25 6.25 C27.8275 6.8275 28.405 7.405 29 8 C28.01 8.99 27.02 9.98 26 11 C24.30729167 9.99088542 22.61458333 8.98177083 20.921875 7.97265625 C16.57601947 5.77322936 12.04156562 5.71376229 7.25 5.4375 C6.55261719 5.39431641 5.85523438 5.35113281 5.13671875 5.30664062 C3.42468078 5.20110404 1.71236439 5.1001009 0 5 C0 4.67 0 4.34 0 4 C3.3 4 6.6 4 10 4 C10 3.34 10 2.68 10 2 C6.7 1.67 3.4 1.34 0 1 C0 0.67 0 0.34 0 0 Z " fill="#C2A66F" transform="translate(36,91)"/>
<path d="M0 0 C4.39268778 2.19634389 6.98179198 4.48871149 9 9 C8.67 9.66 8.34 10.32 8 11 C7.34 10.67 6.68 10.34 6 10 C6 11.98 6 13.96 6 16 C5.67 16 5.34 16 5 16 C4.938125 14.9275 4.87625 13.855 4.8125 12.75 C4.29437031 8.98079865 4.29437031 8.98079865 2 6.5625 C-2.07374696 4.44075679 -5.49827091 4.64692321 -10 5 C-10.33 3.68 -10.66 2.36 -11 1 C-7.5259169 -0.73704155 -3.79843331 -0.46041616 0 0 Z " fill="#C3A76E" transform="translate(95,81)"/>
<path d="M0 0 C-0.33 0.99 -0.66 1.98 -1 3 C-1.90621094 3.09796875 -2.81242187 3.1959375 -3.74609375 3.296875 C-11.13852419 4.20430562 -17.43305024 5.42118611 -24 9 C-24 7.35 -24 5.7 -24 4 C-16.23702211 -0.71248522 -8.79851917 -0.41732107 0 0 Z " fill="#CBAE74" transform="translate(47,92)"/>
<path d="M0 0 C3.00234704 0.06768576 4.47415236 0.23523658 7.1875 1.625 C8.625 3.3125 8.625 3.3125 8.625 6.3125 C3.015 6.3125 -2.595 6.3125 -8.375 6.3125 C-5.98546379 1.53342759 -5.23070513 0.02606664 0 0 Z " fill="#1E150A" transform="translate(90.375,155.6875)"/>
<path d="M0 0 C0 0.99 0 1.98 0 3 C3.3 3 6.6 3 10 3 C10 3.33 10 3.66 10 4 C8.97261719 4.02578125 7.94523437 4.0515625 6.88671875 4.078125 C-1.74546409 4.39640544 -9.02281312 5.36632377 -17 9 C-17 7.68 -17 6.36 -17 5 C-11.65467807 1.43645204 -6.50060481 -0.48754536 0 0 Z " fill="#C3AA74" transform="translate(37,80)"/>
<path d="M0 0 C2.37507855 -0.02719556 4.74983964 -0.04693247 7.125 -0.0625 C8.12273438 -0.07506836 8.12273438 -0.07506836 9.140625 -0.08789062 C13.20681354 -0.10782292 17.0120092 0.21109839 21 1 C21 1.66 21 2.32 21 3 C21.66 3 22.32 3 23 3 C23 3.66 23 4.32 23 5 C15.41 4.34 7.82 3.68 0 3 C0 2.01 0 1.02 0 0 Z " fill="#C7A96E" transform="translate(37,80)"/>
<path d="M0 0 C1.00546875 0.37125 1.00546875 0.37125 2.03125 0.75 C3.94485971 0.96648378 5.86208621 1.15256968 7.78125 1.3125 C8.76609375 1.39628906 9.7509375 1.48007813 10.765625 1.56640625 C11.51328125 1.62699219 12.2609375 1.68757813 13.03125 1.75 C13.03125 2.08 13.03125 2.41 13.03125 2.75 C12.26941406 2.75257812 11.50757812 2.75515625 10.72265625 2.7578125 C3.12209841 3.04247759 -2.36735992 4.38723416 -7.96875 9.75 C-9.20779683 11.84473371 -9.20779683 11.84473371 -9.96875 13.75 C-10.62875 11.44 -11.28875 9.13 -11.96875 6.75 C-10.39700925 5.54719839 -8.81087442 4.36318725 -7.21875 3.1875 C-6.33703125 2.52621094 -5.4553125 1.86492187 -4.546875 1.18359375 C-1.96875 -0.25 -1.96875 -0.25 0 0 Z " fill="#C2A874" transform="translate(33.96875,106.25)"/>
<path d="M0 0 C6.06732052 1.03767051 11.4373852 2.33961901 17 5 C17.33 4.34 17.66 3.68 18 3 C18 3.99 18 4.98 18 6 C17.01 6 16.02 6 15 6 C15.33 6.99 15.66 7.98 16 9 C15.45472656 8.80664062 14.90945312 8.61328125 14.34765625 8.4140625 C8.9561948 6.55239547 3.59078274 5.12344334 -2 4 C-1.34 3.67 -0.68 3.34 0 3 C0 2.01 0 1.02 0 0 Z " fill="#CBAF73" transform="translate(146,80)"/>
<path d="M0 0 C0.66 0.33 1.32 0.66 2 1 C1.319375 1.763125 0.63875 2.52625 -0.0625 3.3125 C-0.701875 4.199375 -1.34125 5.08625 -2 6 C-1.67 6.99 -1.34 7.98 -1 9 C-1.99609375 11.48046875 -1.99609375 11.48046875 -3.4375 14.1875 C-3.91058594 15.08855469 -4.38367187 15.98960938 -4.87109375 16.91796875 C-5.24363281 17.60503906 -5.61617187 18.29210937 -6 19 C-8.64 19 -11.28 19 -14 19 C-13.38125 18.95875 -12.7625 18.9175 -12.125 18.875 C-11.42375 18.58625 -10.7225 18.2975 -10 18 C-9.28771856 16.01578741 -8.63484067 14.01032877 -8 12 C-3.26421405 3.26421405 -3.26421405 3.26421405 0 0 Z " fill="#C0A46B" transform="translate(53,61)"/>
<path d="M0 0 C0.99 1.32 1.98 2.64 3 4 C2.01 5.32 1.02 6.64 0 8 C1.32 8.33 2.64 8.66 4 9 C2.3767313 9.6708712 0.75132422 10.33657029 -0.875 11 C-1.77992187 11.37125 -2.68484375 11.7425 -3.6171875 12.125 C-6 13 -6 13 -8 13 C-8 12.01 -8 11.02 -8 10 C-8.66 9.67 -9.32 9.34 -10 9 C-7.36 8.01 -4.72 7.02 -2 6 C-2.33 4.68 -2.66 3.36 -3 2 C-2.01 2 -1.02 2 0 2 C0 1.34 0 0.68 0 0 Z " fill="#BDA36F" transform="translate(124,76)"/>
<path d="M0 0 C0 0.33 0 0.66 0 1 C-2.64 1.33 -5.28 1.66 -8 2 C-5.03 2.495 -5.03 2.495 -2 3 C-2 3.33 -2 3.66 -2 4 C-3.5778125 4.0928125 -3.5778125 4.0928125 -5.1875 4.1875 C-9.6291735 5.13408616 -11.11593757 6.59156258 -14 10 C-14.99 9.67 -15.98 9.34 -17 9 C-16.06026802 5.61696486 -15.0726148 4.06553043 -12.4375 1.6875 C-8.09935347 -0.44213557 -4.73624704 -0.37889976 0 0 Z " fill="#BDA36F" transform="translate(95,152)"/>
<path d="M0 0 C0.33 0.66 0.66 1.32 1 2 C-0.89515353 5.74623373 -3.37268608 8.72081913 -6.1875 11.8125 C-6.90292969 12.60269531 -7.61835937 13.39289063 -8.35546875 14.20703125 C-8.89816406 14.79871094 -9.44085938 15.39039062 -10 16 C-10.66 15.34 -11.32 14.68 -12 14 C-4.57142857 2.28571429 -4.57142857 2.28571429 0 0 Z " fill="#CCB17B" transform="translate(62,53)"/>
<path d="M0 0 C1.89551022 -0.05441656 3.7914792 -0.09298035 5.6875 -0.125 C6.74324219 -0.14820312 7.79898438 -0.17140625 8.88671875 -0.1953125 C12.02251859 0.00141271 14.17645373 0.66942346 17 2 C17 2.99 17 3.98 17 5 C11.39 5 5.78 5 0 5 C0 4.67 0 4.34 0 4 C3.3 4 6.6 4 10 4 C10 3.34 10 2.68 10 2 C6.7 1.67 3.4 1.34 0 1 C0 0.67 0 0.34 0 0 Z " fill="#9E8758" transform="translate(36,91)"/>
<path d="M0 0 C0 0.66 0 1.32 0 2 C-0.66 2 -1.32 2 -2 2 C-2.33 2.99 -2.66 3.98 -3 5 C-11.8 13 -11.8 13 -17 13 C-4.5 0 -4.5 0 0 0 Z " fill="#B49D73" transform="translate(43,15)"/>
<path d="M0 0 C1.76949095 -0.10815225 3.54087487 -0.18566083 5.3125 -0.25 C6.29863281 -0.29640625 7.28476563 -0.3428125 8.30078125 -0.390625 C11 0 11 0 12.875 1.84375 C14.32689196 4.62654293 13.89825501 6.06025633 13 9 C12.0409375 7.824375 12.0409375 7.824375 11.0625 6.625 C7.67556897 3.16954724 3.63862668 2.67709801 -1 2 C-0.67 1.34 -0.34 0.68 0 0 Z " fill="#CBAF74" transform="translate(87,153)"/>
<path d="M0 0 C7.35342179 -0.20177072 13.94887561 -0.21211746 21 2 C20.01 2.495 20.01 2.495 19 3 C19.33 3.99 19.66 4.98 20 6 C13.34928849 5.37257439 13.34928849 5.37257439 11.59375 3.5 C9.40711789 1.44199331 7.76786974 1.50440713 4.8125 1.3125 C3.91144531 1.24675781 3.01039062 1.18101563 2.08203125 1.11328125 C1.39496094 1.07589844 0.70789063 1.03851563 0 1 C0 0.67 0 0.34 0 0 Z " fill="#BAA16B" transform="translate(84,44)"/>
<path d="M0 0 C0.5775 0.226875 1.155 0.45375 1.75 0.6875 C0.00084555 2.12602875 -1.74935795 3.56328198 -3.5 5 C-4.96179688 6.20076172 -4.96179688 6.20076172 -6.453125 7.42578125 C-8.6866262 9.23192258 -10.93687263 10.98569915 -13.25 12.6875 C-13.91 12.3575 -14.57 12.0275 -15.25 11.6875 C-13.83653438 10.24685235 -12.41908789 8.81010985 -11 7.375 C-10.21109375 6.57449219 -9.4221875 5.77398437 -8.609375 4.94921875 C-3.01030841 -0.41809839 -3.01030841 -0.41809839 0 0 Z " fill="#271E11" transform="translate(51.25,30.3125)"/>
<path d="M0 0 C0.99 0.33 1.98 0.66 3 1 C3 1.66 3 2.32 3 3 C3.66 3.33 4.32 3.66 5 4 C1.83013832 5.58493084 -1.54032261 5.2940042 -5 5 C-7.5 4 -7.5 4 -9 3 C-8 2 -8 2 -6.15234375 1.90234375 C-4.1015625 1.93489583 -2.05078125 1.96744792 0 2 C0 1.34 0 0.68 0 0 Z " fill="#CEAF72" transform="translate(104,115)"/>
<path d="M0 0 C0.66 0 1.32 0 2 0 C0.74646681 7.06536889 -1.56203749 12.71456473 -5 19 C-5.33 19 -5.66 19 -6 19 C-5.67 16.69 -5.34 14.38 -5 12 C-4.34 12 -3.68 12 -3 12 C-3 10.68 -3 9.36 -3 8 C-2.34 8 -1.68 8 -1 8 C-0.67 5.36 -0.34 2.72 0 0 Z " fill="#8F7E55" transform="translate(175,112)"/>
<path d="M0 0 C0.33 1.32 0.66 2.64 1 4 C-1.97 5.32 -4.94 6.64 -8 8 C-8 6.35 -8 4.7 -8 3 C-2.25 0 -2.25 0 0 0 Z " fill="#BDA470" transform="translate(31,93)"/>
<path d="M0 0 C0 0.99 0 1.98 0 3 C3.3 3 6.6 3 10 3 C10 3.33 10 3.66 10 4 C2.96517526 4.23668569 -3.1834265 3.7879537 -10 2 C-6.48375245 0.05841983 -4.0284349 -0.18311068 0 0 Z " fill="#A38C5E" transform="translate(37,80)"/>
<path d="M0 0 C5.26053037 -0.31563182 8.44573816 0.33409063 13 3 C12.67 4.65 12.34 6.3 12 8 C7.125 5.375 7.125 5.375 6 2 C3.03 1.505 3.03 1.505 0 1 C0 0.67 0 0.34 0 0 Z " fill="#B59C67" transform="translate(135,116)"/>
<path d="M0 0 C1.72880982 -0.05449838 3.45812712 -0.09301688 5.1875 -0.125 C6.15042969 -0.14820312 7.11335938 -0.17140625 8.10546875 -0.1953125 C11.12812778 0.0086456 13.26769985 0.73125368 16 2 C15 4 15 4 13.1875 4.8125 C11 5 11 5 9.1875 3.625 C6.24276892 1.43748548 3.59561853 1.34573255 0 1 C0 0.67 0 0.34 0 0 Z " fill="#BAA068" transform="translate(85,69)"/>
<path d="M0 0 C0.5775 0.2475 1.155 0.495 1.75 0.75 C0.49874616 4.50376152 -0.8152404 4.99073289 -4.25 6.75 C-4.91 6.75 -5.57 6.75 -6.25 6.75 C-7.24 7.245 -7.24 7.245 -8.25 7.75 C-6.64613593 4.0076505 -4.56199942 -0.50688882 0 0 Z " fill="#C8AD77" transform="translate(127.25,108.25)"/>
<path d="M0 0 C3.3 0 6.6 0 10 0 C10 0.66 10 1.32 10 2 C10.66 2.33 11.32 2.66 12 3 C8.04 3 4.08 3 0 3 C0 2.01 0 1.02 0 0 Z " fill="#D5B577" transform="translate(37,80)"/>
<path d="M0 0 C-2.24623699 0.69969682 -4.49716414 1.38435043 -6.75 2.0625 C-8.00296875 2.44535156 -9.2559375 2.82820312 -10.546875 3.22265625 C-13.6738008 3.92656828 -15.09466046 4.16653785 -18 3 C-17.01 3 -16.02 3 -15 3 C-15 2.34 -15 1.68 -15 1 C-13.25215171 0.63536268 -11.50159498 0.2836922 -9.75 -0.0625 C-8.28820312 -0.35833984 -8.28820312 -0.35833984 -6.796875 -0.66015625 C-4.131881 -0.98397535 -2.51128277 -0.85503199 0 0 Z " fill="#877552" transform="translate(120,175)"/>
<path d="M0 0 C3.96 0 7.92 0 12 0 C12 0.33 12 0.66 12 1 C8.37 1.33 4.74 1.66 1 2 C0.67 1.34 0.34 0.68 0 0 Z M-1 2 C2.63 2.33 6.26 2.66 10 3 C10 3.33 10 3.66 10 4 C6.37 4.33 2.74 4.66 -1 5 C-1 4.01 -1 3.02 -1 2 Z " fill="#B59F6F" transform="translate(84,140)"/>
<path d="M0 0 C0.33 0 0.66 0 1 0 C1.41694996 1.59880813 1.80790856 3.20441261 2.1875 4.8125 C2.40792969 5.70582031 2.62835938 6.59914062 2.85546875 7.51953125 C3 10 3 10 1.55078125 11.82421875 C0.78314453 12.40623047 0.78314453 12.40623047 0 13 C-1.32 11.02 -2.64 9.04 -4 7 C-2.68 7 -1.36 7 0 7 C0 4.69 0 2.38 0 0 Z " fill="#B29868" transform="translate(129,127)"/>
<path d="M0 0 C2.00894987 0.31505671 4.00196224 0.72722595 5.9921875 1.14453125 C6.3221875 1.80453125 6.6521875 2.46453125 6.9921875 3.14453125 C3.0321875 3.14453125 -0.9278125 3.14453125 -5.0078125 3.14453125 C-2.0078125 0.14453125 -2.0078125 0.14453125 0 0 Z " fill="#CDB077" transform="translate(88.0078125,126.85546875)"/>
<path d="M0 0 C-0.556875 0.226875 -1.11375 0.45375 -1.6875 0.6875 C-4.21191217 1.98476448 -4.21191217 1.98476448 -6.5625 4.5625 C-9 7 -9 7 -12 8 C-9.83199867 1.31532922 -6.98981916 -0.47657858 0 0 Z " fill="#2E2215" transform="translate(45,120)"/>
<path d="M0 0 C3.1875 -0.25 3.1875 -0.25 6 0 C6.33 0.99 6.66 1.98 7 3 C3.7 3.33 0.4 3.66 -3 4 C-2.01 2.68 -1.02 1.36 0 0 Z " fill="#CFB275" transform="translate(135,117)"/>
<path d="M0 0 C1.22589844 0.01353516 1.22589844 0.01353516 2.4765625 0.02734375 C3.41628906 0.04474609 3.41628906 0.04474609 4.375 0.0625 C4.375 0.3925 4.375 0.7225 4.375 1.0625 C2.395 1.3925 0.415 1.7225 -1.625 2.0625 C-0.305 2.7225 1.015 3.3825 2.375 4.0625 C-0.265 4.3925 -2.905 4.7225 -5.625 5.0625 C-5.955 3.7425 -6.285 2.4225 -6.625 1.0625 C-4.21954362 -0.14022819 -2.67503047 -0.03821472 0 0 Z " fill="#B69E6E" transform="translate(90.625,80.9375)"/>
<path d="M0 0 C-0.99 0.33 -1.98 0.66 -3 1 C-2.01 1.66 -1.02 2.32 0 3 C-3.63 3.33 -7.26 3.66 -11 4 C-8 0 -8 0 -6.0625 -0.8125 C-3.79631016 -1.01851726 -2.15577438 -0.69292748 0 0 Z " fill="#C9AD73" transform="translate(133,81)"/>
<path d="M0 0 C0.33 0.99 0.66 1.98 1 3 C-0.29486821 4.69672386 -1.63360658 6.3603279 -3 8 C-4.24016669 10.6794645 -4.24016669 10.6794645 -5 13 C-5.66 13 -6.32 13 -7 13 C-5.60332244 8.11162854 -3.65571105 3.65571105 0 0 Z " fill="#2A2012" transform="translate(65,142)"/>
<path d="M0 0 C3.3 0 6.6 0 10 0 C10.33 0.99 10.66 1.98 11 3 C7.04 2.67 3.08 2.34 -1 2 C-0.67 1.34 -0.34 0.68 0 0 Z " fill="#D0B275" transform="translate(86,141)"/>
<path d="M0 0 C0 0.99 0 1.98 0 3 C-2.58246143 4.90877584 -5.12754491 6.56377246 -8 8 C-7.32253522 3.25774652 -4.9532836 0 0 0 Z " fill="#C6AC78" transform="translate(75,132)"/>
<path d="M0 0 C2.4375 0.75 2.4375 0.75 5 2 C5.8125 4.125 5.8125 4.125 6 6 C4.35 5.67 2.7 5.34 1 5 C0.67 3.35 0.34 1.7 0 0 Z " fill="#CEB074" transform="translate(149,107)"/>
<path d="M0 0 C3.16115776 1.36983503 3.9927092 1.9890638 6 5 C5.34 5 4.68 5 4 5 C3.67 5.66 3.34 6.32 3 7 C1.68 5.68 0.36 4.36 -1 3 C-0.67 2.01 -0.34 1.02 0 0 Z " fill="#CFB278" transform="translate(64,99)"/>
<path d="M0 0 C0.66 0 1.32 0 2 0 C2.66 1.98 3.32 3.96 4 6 C2.68 6 1.36 6 0 6 C-0.38218767 4.34385343 -0.71395102 2.67542976 -1 1 C-0.67 0.67 -0.34 0.34 0 0 Z " fill="#CFB277" transform="translate(84,104)"/>
<path d="M0 0 C-0.28875 0.53625 -0.5775 1.0725 -0.875 1.625 C-2.16711808 4.35280484 -3.08558592 7.12612718 -4 10 C-5.34771696 7.78023089 -6.04398726 6.49852224 -5.8125 3.875 C-4.62160752 1.12678659 -3.01038966 0 0 0 Z " fill="#2C2012" transform="translate(26,100)"/>
<path d="M0 0 C0.33 0.66 0.66 1.32 1 2 C-1.31 4.64 -3.62 7.28 -6 10 C-6.66 9.67 -7.32 9.34 -8 9 C-5.36 6.03 -2.72 3.06 0 0 Z " fill="#2E2215" transform="translate(60,59)"/>
<path d="M0 0 C2.97 0 5.94 0 9 0 C9.33 0.99 9.66 1.98 10 3 C6.6875 3.1875 6.6875 3.1875 3 3 C2.01 2.01 1.02 1.02 0 0 Z " fill="#CEB276" transform="translate(84,70)"/>
<path d="M0 0 C0.33 1.32 0.66 2.64 1 4 C-0.65 5.32 -2.3 6.64 -4 8 C-4.66 7.67 -5.32 7.34 -6 7 C-4.02 4.69 -2.04 2.38 0 0 Z " fill="#9E8764" transform="translate(24,30)"/>
<path d="M0 0 C0.66 0.33 1.32 0.66 2 1 C1.34 1.66 0.68 2.32 0 3 C0 3.99 0 4.98 0 6 C-1.66666667 6 -3.33333333 6 -5 6 C-3.63016497 2.83884224 -3.0109362 2.0072908 0 0 Z " fill="#B99E6C" transform="translate(133,117)"/>
<path d="M0 0 C0.54140625 0.15339844 1.0828125 0.30679688 1.640625 0.46484375 C4.34704023 1.07871608 6.9850509 1.33208757 9.75 1.5625 C10.73484375 1.64628906 11.7196875 1.73007813 12.734375 1.81640625 C13.85585938 1.90728516 13.85585938 1.90728516 15 2 C15 2.33 15 2.66 15 3 C10.38 3.33 5.76 3.66 1 4 C0.67 2.68 0.34 1.36 0 0 Z " fill="#A28A5E" transform="translate(32,106)"/>
<path d="M0 0 C0.66 0.99 1.32 1.98 2 3 C1.01 4.485 1.01 4.485 0 6 C-0.66 6 -1.32 6 -2 6 C-2.33 7.65 -2.66 9.3 -3 11 C-3.66 11 -4.32 11 -5 11 C-3.77472971 6.94718288 -2.30119506 3.55639236 0 0 Z " fill="#B0986A" transform="translate(15,42)"/>
<path d="M0 0 C1.98 0.99 1.98 0.99 4 2 C3.34 3.65 2.68 5.3 2 7 C0 5 0 5 -0.125 2.375 C-0.08375 1.59125 -0.0425 0.8075 0 0 Z " fill="#C8AC72" transform="translate(147,120)"/>
<path d="M0 0 C2.66666667 0.66666667 5.33333333 1.33333333 8 2 C3.05 3.485 3.05 3.485 -2 5 C-1.34 3.35 -0.68 1.7 0 0 Z " fill="#BEA774" transform="translate(70,119)"/>
<path d="M0 0 C0.99 0.33 1.98 0.66 3 1 C1.515 3.475 1.515 3.475 0 6 C-0.99 5.67 -1.98 5.34 -3 5 C-2.01 3.35 -1.02 1.7 0 0 Z " fill="#CCAF74" transform="translate(83,83)"/>
<path d="M0 0 C0.33 0.99 0.66 1.98 1 3 C0.01 3 -0.98 3 -2 3 C-1.67 3.99 -1.34 4.98 -1 6 C-2.98 5.34 -4.96 4.68 -7 4 C-6.01 3.67 -5.02 3.34 -4 3 C-4 2.34 -4 1.68 -4 1 C-2.68 1.33 -1.36 1.66 0 2 C0 1.34 0 0.68 0 0 Z " fill="#C1A56E" transform="translate(163,83)"/>
<path d="M0 0 C2.31 0.33 4.62 0.66 7 1 C4.64031256 3.09749995 3.45383006 3.96905704 0.25 4.1875 C-0.86375 4.0946875 -0.86375 4.0946875 -2 4 C-1.34 3.67 -0.68 3.34 0 3 C0 2.01 0 1.02 0 0 Z " fill="#C3A871" transform="translate(146,80)"/>
<path d="M0 0 C0 0.66 0 1.32 0 2 C0.66 2 1.32 2 2 2 C2 2.66 2 3.32 2 4 C-0.97 3.67 -3.94 3.34 -7 3 C-2.5 0 -2.5 0 0 0 Z " fill="#D5B572" transform="translate(58,81)"/>
<path d="M0 0 C0.66 0.33 1.32 0.66 2 1 C2 2.98 2 4.96 2 7 C0.68 6.67 -0.64 6.34 -2 6 C-1.34 4.02 -0.68 2.04 0 0 Z " fill="#392F1A" transform="translate(161,78)"/>
<path d="M0 0 C1.32 0.33 2.64 0.66 4 1 C4 2.32 4 3.64 4 5 C3.01 5 2.02 5 1 5 C0.67 3.35 0.34 1.7 0 0 Z " fill="#CEB179" transform="translate(117,140)"/>
<path d="M0 0 C0.33 1.32 0.66 2.64 1 4 C0.01 4.33 -0.98 4.66 -2 5 C-2 5.66 -2 6.32 -2 7 C-2.99 6.67 -3.98 6.34 -5 6 C-5 5.34 -5 4.68 -5 4 C-3.35 3.67 -1.7 3.34 0 3 C0 2.01 0 1.02 0 0 Z " fill="#BB9F6F" transform="translate(126,125)"/>
<path d="M0 0 C1.32 0.66 2.64 1.32 4 2 C3.34 3.32 2.68 4.64 2 6 C1.67 5.34 1.34 4.68 1 4 C0.67 4.66 0.34 5.32 0 6 C-0.99 5.67 -1.98 5.34 -3 5 C-2.34 5 -1.68 5 -1 5 C-0.67 3.35 -0.34 1.7 0 0 Z " fill="#B29862" transform="translate(93,109)"/>
<path d="M0 0 C2.1385485 2.1385485 2.42655063 3.13275314 3 6 C1.35 6 -0.3 6 -2 6 C-1.49396008 3.83125748 -1.00016187 2.00032373 0 0 Z " fill="#C0A66E" transform="translate(136,74)"/>
</svg>
